<svg width="540" height="222" viewBox="0 0 540 222" fill="none" xmlns="http://www.w3.org/2000/svg">
<path d="M0 52C0 50.8954 0.895431 50 2 50H538C539.105 50 540 50.8954 540 52C540 53.1046 539.105 54 538 54H2.00001C0.895436 54 0 53.1046 0 52Z" fill="#EBEBEB"/>
<path d="M0 52C0 50.8954 0.895431 50 2 50H457C458.105 50 459 50.8954 459 52C459 53.1046 458.105 54 457 54H1.99999C0.895421 54 0 53.1046 0 52Z" fill="#0057FF"/>
<path d="M497.695 34.18C496.722 34.18 495.942 33.9867 495.355 33.6C494.769 33.2133 494.342 32.6667 494.075 31.96C493.822 31.24 493.695 30.4 493.695 29.44C493.695 28.8933 493.742 28.4133 493.835 28C493.929 27.5867 494.062 27.2267 494.235 26.92C494.422 26.6 494.635 26.3267 494.875 26.1C495.129 25.86 495.402 25.6467 495.695 25.46C495.162 25.1 494.729 24.6333 494.395 24.06C494.062 23.4733 493.895 22.7333 493.895 21.84C493.895 20.9867 494.029 20.2467 494.295 19.62C494.562 18.9933 494.975 18.5133 495.535 18.18C496.109 17.8333 496.829 17.66 497.695 17.66C498.562 17.66 499.269 17.8333 499.815 18.18C500.375 18.5133 500.789 18.9933 501.055 19.62C501.322 20.2467 501.455 20.9867 501.455 21.84C501.455 22.7467 501.289 23.4867 500.955 24.06C500.635 24.6333 500.202 25.1 499.655 25.46C499.949 25.6467 500.215 25.86 500.455 26.1C500.709 26.3267 500.922 26.6 501.095 26.92C501.282 27.2267 501.422 27.5867 501.515 28C501.622 28.4133 501.675 28.8933 501.675 29.44C501.675 30.4 501.542 31.24 501.275 31.96C501.022 32.6667 500.602 33.2133 500.015 33.6C499.442 33.9867 498.669 34.18 497.695 34.18ZM497.695 32.48C498.215 32.48 498.615 32.3467 498.895 32.08C499.175 31.8133 499.362 31.4533 499.455 31C499.562 30.5467 499.615 30.04 499.615 29.48C499.615 28.9733 499.555 28.5 499.435 28.06C499.329 27.6067 499.135 27.24 498.855 26.96C498.575 26.6667 498.189 26.52 497.695 26.52C497.202 26.52 496.809 26.66 496.515 26.94C496.235 27.22 496.035 27.5867 495.915 28.04C495.795 28.48 495.735 28.96 495.735 29.48C495.735 30.04 495.789 30.5467 495.895 31C496.002 31.4533 496.195 31.8133 496.475 32.08C496.769 32.3467 497.175 32.48 497.695 32.48ZM497.695 24.48C498.149 24.4667 498.489 24.3267 498.715 24.06C498.955 23.7933 499.122 23.4533 499.215 23.04C499.309 22.6133 499.355 22.1733 499.355 21.72C499.355 21.0533 499.235 20.4867 498.995 20.02C498.755 19.5533 498.322 19.32 497.695 19.32C497.069 19.32 496.629 19.5533 496.375 20.02C496.122 20.4867 495.995 21.0533 495.995 21.72C495.995 22.1733 496.042 22.6133 496.135 23.04C496.229 23.4533 496.395 23.7933 496.635 24.06C496.889 24.3267 497.242 24.4667 497.695 24.48ZM507.536 34.16C506.562 34.16 505.789 33.9733 505.216 33.6C504.642 33.2267 504.229 32.6867 503.976 31.98C503.736 31.2733 503.616 30.4333 503.616 29.46H505.756C505.756 29.94 505.796 30.4133 505.876 30.88C505.956 31.3333 506.122 31.7133 506.376 32.02C506.642 32.3133 507.042 32.46 507.576 32.46C508.162 32.46 508.582 32.2933 508.836 31.96C509.089 31.6133 509.249 31.1533 509.316 30.58C509.382 29.9933 509.416 29.3333 509.416 28.6C509.416 27.8667 509.376 27.2467 509.296 26.74C509.216 26.22 509.049 25.8267 508.796 25.56C508.542 25.28 508.142 25.14 507.596 25.14C507.156 25.14 506.782 25.28 506.476 25.56C506.169 25.8267 505.942 26.1333 505.796 26.48H503.976V17.8H510.956V19.94H505.916L505.776 24.42C506.042 24.14 506.369 23.92 506.756 23.76C507.156 23.6 507.609 23.52 508.116 23.52C508.996 23.52 509.682 23.7267 510.176 24.14C510.682 24.5533 511.036 25.12 511.236 25.84C511.449 26.56 511.556 27.3867 511.556 28.32C511.556 29.1467 511.496 29.92 511.376 30.64C511.256 31.3467 511.042 31.9667 510.736 32.5C510.442 33.02 510.036 33.4267 509.516 33.72C508.996 34.0133 508.336 34.16 507.536 34.16ZM517.968 34L522.428 17.78H524.268L519.828 34H517.968ZM516.048 26.4C514.941 26.4 514.141 26.06 513.648 25.38C513.154 24.7 512.908 23.7867 512.908 22.64V21.38C512.908 20.1933 513.148 19.28 513.628 18.64C514.108 18 514.914 17.68 516.048 17.68C517.181 17.68 517.988 17.9867 518.468 18.6C518.948 19.2133 519.188 20.1067 519.188 21.28V22.7C519.188 23.86 518.941 24.7667 518.448 25.42C517.968 26.0733 517.168 26.4 516.048 26.4ZM516.048 24.78C516.394 24.78 516.648 24.6867 516.808 24.5C516.981 24.3 517.094 24.04 517.148 23.72C517.214 23.4 517.248 23.06 517.248 22.7V21.28C517.248 20.7333 517.174 20.2667 517.028 19.88C516.894 19.4933 516.568 19.3 516.048 19.3C515.528 19.3 515.201 19.5 515.068 19.9C514.934 20.2867 514.868 20.7533 514.868 21.3V22.72C514.868 23.08 514.894 23.42 514.948 23.74C515.014 24.0467 515.128 24.3 515.288 24.5C515.461 24.6867 515.714 24.78 516.048 24.78ZM526.148 34.1C525.041 34.1 524.241 33.7667 523.748 33.1C523.268 32.42 523.028 31.5 523.028 30.34V29.08C523.028 27.9067 523.261 27 523.728 26.36C524.208 25.7067 525.014 25.38 526.148 25.38C527.294 25.38 528.101 25.6933 528.568 26.32C529.048 26.9333 529.288 27.8267 529.288 29V30.4C529.288 31.5733 529.041 32.4867 528.548 33.14C528.068 33.78 527.268 34.1 526.148 34.1ZM526.148 32.48C526.494 32.48 526.754 32.3867 526.928 32.2C527.101 32 527.214 31.74 527.268 31.42C527.321 31.1 527.348 30.7667 527.348 30.42V28.98C527.348 28.4333 527.274 27.9667 527.128 27.58C526.994 27.1933 526.668 27 526.148 27C525.628 27 525.301 27.2 525.168 27.6C525.034 27.9867 524.968 28.4533 524.968 29V30.42C524.968 30.78 524.994 31.12 525.048 31.44C525.114 31.7467 525.228 32 525.388 32.2C525.561 32.3867 525.814 32.48 526.148 32.48Z" fill="black"/>
<path d="M11.197 34V18.61H14.294C15.32 18.61 16.1687 18.7493 16.84 19.028C17.5113 19.294 18.0053 19.731 18.322 20.339C18.6513 20.9343 18.816 21.7197 18.816 22.695C18.816 23.2903 18.7527 23.835 18.626 24.329C18.4993 24.8103 18.2967 25.222 18.018 25.564C17.7393 25.8933 17.372 26.134 16.916 26.286L19.101 34H17.03L15.016 26.78H13.344V34H11.197ZM13.344 25.241H14.161C14.769 25.241 15.263 25.165 15.643 25.013C16.023 24.861 16.3017 24.6013 16.479 24.234C16.6563 23.8667 16.745 23.3537 16.745 22.695C16.745 21.7957 16.5803 21.1497 16.251 20.757C15.9217 20.3517 15.2693 20.149 14.294 20.149H13.344V25.241ZM21.0495 34V18.61H27.0155V20.206H23.1965V25.298H26.2935V26.818H23.1965V32.461H27.0535V34H21.0495ZM32.4158 34.171C31.5292 34.171 30.7882 33.981 30.1928 33.601C29.6102 33.221 29.1668 32.6953 28.8628 32.024C28.5588 31.3527 28.3815 30.5737 28.3308 29.687L30.2308 29.174C30.2688 29.7187 30.3512 30.2443 30.4778 30.751C30.6172 31.2577 30.8388 31.6757 31.1428 32.005C31.4468 32.3217 31.8712 32.48 32.4158 32.48C32.9732 32.48 33.3912 32.328 33.6698 32.024C33.9612 31.7073 34.1068 31.2577 34.1068 30.675C34.1068 29.9783 33.9485 29.421 33.6318 29.003C33.3152 28.5723 32.9162 28.1417 32.4348 27.711L29.8508 25.431C29.3442 24.9877 28.9705 24.5063 28.7298 23.987C28.4892 23.455 28.3688 22.8027 28.3688 22.03C28.3688 20.9027 28.6918 20.0287 29.3378 19.408C29.9838 18.7873 30.8642 18.477 31.9788 18.477C32.5868 18.477 33.1188 18.5593 33.5748 18.724C34.0435 18.876 34.4298 19.1167 34.7338 19.446C35.0505 19.7753 35.2975 20.1933 35.4748 20.7C35.6648 21.194 35.7915 21.7767 35.8548 22.448L34.0308 22.942C33.9928 22.4353 33.9168 21.973 33.8028 21.555C33.6888 21.1243 33.4862 20.7823 33.1948 20.529C32.9162 20.263 32.5108 20.13 31.9788 20.13C31.4468 20.13 31.0288 20.2757 30.7248 20.567C30.4335 20.8457 30.2878 21.2637 30.2878 21.821C30.2878 22.2897 30.3638 22.676 30.5158 22.98C30.6805 23.284 30.9402 23.5943 31.2948 23.911L33.8978 26.191C34.4805 26.6977 34.9935 27.3057 35.4368 28.015C35.8802 28.7117 36.1018 29.5413 36.1018 30.504C36.1018 31.264 35.9435 31.9227 35.6268 32.48C35.3102 33.0247 34.8732 33.4427 34.3158 33.734C33.7712 34.0253 33.1378 34.171 32.4158 34.171ZM37.7673 34V18.61H43.7333V20.206H39.9143V25.298H43.0113V26.818H39.9143V32.461H43.7713V34H37.7673ZM44.6686 34L47.9366 18.61H50.0076L53.2946 34H51.2616L50.5586 30.124H47.4236L46.6826 34H44.6686ZM47.7086 28.585H50.2736L48.9816 21.65L47.7086 28.585ZM54.8562 34V18.61H57.9532C58.9792 18.61 59.8278 18.7493 60.4992 19.028C61.1705 19.294 61.6645 19.731 61.9812 20.339C62.3105 20.9343 62.4752 21.7197 62.4752 22.695C62.4752 23.2903 62.4118 23.835 62.2852 24.329C62.1585 24.8103 61.9558 25.222 61.6772 25.564C61.3985 25.8933 61.0312 26.134 60.5752 26.286L62.7602 34H60.6892L58.6752 26.78H57.0032V34H54.8562ZM57.0032 25.241H57.8202C58.4282 25.241 58.9222 25.165 59.3022 25.013C59.6822 24.861 59.9608 24.6013 60.1382 24.234C60.3155 23.8667 60.4042 23.3537 60.4042 22.695C60.4042 21.7957 60.2395 21.1497 59.9102 20.757C59.5808 20.3517 58.9285 20.149 57.9532 20.149H57.0032V25.241ZM68.5657 34.171C67.4764 34.171 66.6277 33.943 66.0197 33.487C65.4244 33.031 65.0064 32.4167 64.7657 31.644C64.5377 30.8713 64.4237 30.01 64.4237 29.06V23.626C64.4237 22.5873 64.5377 21.6817 64.7657 20.909C65.0064 20.1363 65.4244 19.541 66.0197 19.123C66.6277 18.6923 67.4764 18.477 68.5657 18.477C69.5284 18.477 70.2884 18.6543 70.8457 19.009C71.4157 19.3637 71.8211 19.8703 72.0617 20.529C72.3151 21.1877 72.4417 21.9793 72.4417 22.904V24.12H70.4087V23.037C70.4087 22.467 70.3771 21.9667 70.3137 21.536C70.2631 21.0927 70.1111 20.7507 69.8577 20.51C69.6044 20.2693 69.1801 20.149 68.5847 20.149C67.9767 20.149 67.5334 20.282 67.2547 20.548C66.9761 20.8013 66.7924 21.1687 66.7037 21.65C66.6277 22.1187 66.5897 22.6697 66.5897 23.303V29.402C66.5897 30.1747 66.6531 30.789 66.7797 31.245C66.9064 31.6883 67.1154 32.005 67.4067 32.195C67.6981 32.385 68.0907 32.48 68.5847 32.48C69.1674 32.48 69.5854 32.3533 69.8387 32.1C70.0921 31.834 70.2504 31.473 70.3137 31.017C70.3771 30.561 70.4087 30.029 70.4087 29.421V28.281H72.4417V29.421C72.4417 30.3583 72.3277 31.188 72.0997 31.91C71.8717 32.6193 71.4791 33.1767 70.9217 33.582C70.3644 33.9747 69.5791 34.171 68.5657 34.171ZM74.487 34V18.61H76.634V25.26H80.586V18.61H82.733V34H80.586V26.799H76.634V34H74.487Z" fill="black"/>
<path d="M0 126C0 124.895 0.895431 124 2 124H538C539.105 124 540 124.895 540 126C540 127.105 539.105 128 538 128H2.00001C0.895436 128 0 127.105 0 126Z" fill="#EBEBEB"/>
<path d="M0 126C0 124.895 0.895431 124 2 124H349C350.105 124 351 124.895 351 126C351 127.105 350.105 128 349 128H2.00001C0.895437 128 0 127.105 0 126Z" fill="#B861FF"/>
<path d="M497.757 108.18C496.824 108.18 496.064 107.947 495.477 107.48C494.891 107 494.457 106.36 494.177 105.56C493.911 104.747 493.777 103.847 493.777 102.86V97.4C493.777 96.3467 493.897 95.3867 494.137 94.52C494.377 93.6533 494.784 92.96 495.357 92.44C495.944 91.92 496.744 91.66 497.757 91.66C498.597 91.66 499.304 91.8133 499.877 92.12C500.464 92.4267 500.911 92.8733 501.217 93.46C501.537 94.0467 501.704 94.76 501.717 95.6C501.717 95.6267 501.717 95.6667 501.717 95.72C501.731 95.76 501.737 95.8 501.737 95.84H499.577C499.577 95.0533 499.451 94.4533 499.197 94.04C498.944 93.6267 498.464 93.42 497.757 93.42C497.371 93.42 497.037 93.5467 496.757 93.8C496.477 94.04 496.264 94.4133 496.117 94.92C495.984 95.4267 495.917 96.08 495.917 96.88V99.34C496.131 99.0067 496.431 98.74 496.817 98.54C497.217 98.3267 497.704 98.22 498.277 98.22C499.171 98.22 499.871 98.4133 500.377 98.8C500.884 99.1867 501.244 99.7333 501.457 100.44C501.671 101.133 501.777 101.953 501.777 102.9C501.777 103.873 501.644 104.76 501.377 105.56C501.111 106.36 500.684 107 500.097 107.48C499.511 107.947 498.731 108.18 497.757 108.18ZM497.757 106.4C498.237 106.4 498.611 106.267 498.877 106C499.144 105.72 499.331 105.353 499.437 104.9C499.557 104.447 499.617 103.953 499.617 103.42C499.617 102.78 499.584 102.187 499.517 101.64C499.464 101.093 499.311 100.66 499.057 100.34C498.804 100.007 498.371 99.84 497.757 99.84C497.464 99.84 497.197 99.8933 496.957 100C496.717 100.107 496.511 100.247 496.337 100.42C496.164 100.58 496.024 100.753 495.917 100.94V103.36C495.917 103.907 495.971 104.413 496.077 104.88C496.197 105.347 496.391 105.72 496.657 106C496.924 106.267 497.291 106.4 497.757 106.4ZM507.536 108.16C506.562 108.16 505.789 107.973 505.216 107.6C504.642 107.227 504.229 106.687 503.976 105.98C503.736 105.273 503.616 104.433 503.616 103.46H505.756C505.756 103.94 505.796 104.413 505.876 104.88C505.956 105.333 506.122 105.713 506.376 106.02C506.642 106.313 507.042 106.46 507.576 106.46C508.162 106.46 508.582 106.293 508.836 105.96C509.089 105.613 509.249 105.153 509.316 104.58C509.382 103.993 509.416 103.333 509.416 102.6C509.416 101.867 509.376 101.247 509.296 100.74C509.216 100.22 509.049 99.8267 508.796 99.56C508.542 99.28 508.142 99.14 507.596 99.14C507.156 99.14 506.782 99.28 506.476 99.56C506.169 99.8267 505.942 100.133 505.796 100.48H503.976V91.8H510.956V93.94H505.916L505.776 98.42C506.042 98.14 506.369 97.92 506.756 97.76C507.156 97.6 507.609 97.52 508.116 97.52C508.996 97.52 509.682 97.7267 510.176 98.14C510.682 98.5533 511.036 99.12 511.236 99.84C511.449 100.56 511.556 101.387 511.556 102.32C511.556 103.147 511.496 103.92 511.376 104.64C511.256 105.347 511.042 105.967 510.736 106.5C510.442 107.02 510.036 107.427 509.516 107.72C508.996 108.013 508.336 108.16 507.536 108.16ZM517.968 108L522.428 91.78H524.268L519.828 108H517.968ZM516.048 100.4C514.941 100.4 514.141 100.06 513.648 99.38C513.154 98.7 512.908 97.7867 512.908 96.64V95.38C512.908 94.1933 513.148 93.28 513.628 92.64C514.108 92 514.914 91.68 516.048 91.68C517.181 91.68 517.988 91.9867 518.468 92.6C518.948 93.2133 519.188 94.1067 519.188 95.28V96.7C519.188 97.86 518.941 98.7667 518.448 99.42C517.968 100.073 517.168 100.4 516.048 100.4ZM516.048 98.78C516.394 98.78 516.648 98.6867 516.808 98.5C516.981 98.3 517.094 98.04 517.148 97.72C517.214 97.4 517.248 97.06 517.248 96.7V95.28C517.248 94.7333 517.174 94.2667 517.028 93.88C516.894 93.4933 516.568 93.3 516.048 93.3C515.528 93.3 515.201 93.5 515.068 93.9C514.934 94.2867 514.868 94.7533 514.868 95.3V96.72C514.868 97.08 514.894 97.42 514.948 97.74C515.014 98.0467 515.128 98.3 515.288 98.5C515.461 98.6867 515.714 98.78 516.048 98.78ZM526.148 108.1C525.041 108.1 524.241 107.767 523.748 107.1C523.268 106.42 523.028 105.5 523.028 104.34V103.08C523.028 101.907 523.261 101 523.728 100.36C524.208 99.7067 525.014 99.38 526.148 99.38C527.294 99.38 528.101 99.6933 528.568 100.32C529.048 100.933 529.288 101.827 529.288 103V104.4C529.288 105.573 529.041 106.487 528.548 107.14C528.068 107.78 527.268 108.1 526.148 108.1ZM526.148 106.48C526.494 106.48 526.754 106.387 526.928 106.2C527.101 106 527.214 105.74 527.268 105.42C527.321 105.1 527.348 104.767 527.348 104.42V102.98C527.348 102.433 527.274 101.967 527.128 101.58C526.994 101.193 526.668 101 526.148 101C525.628 101 525.301 101.2 525.168 101.6C525.034 101.987 524.968 102.453 524.968 103V104.42C524.968 104.78 524.994 105.12 525.048 105.44C525.114 105.747 525.228 106 525.388 106.2C525.561 106.387 525.814 106.48 526.148 106.48Z" fill="black"/>
<path d="M11.26 108V91.8H17.54V93.48H13.52V98.84H16.78V100.44H13.52V106.38H17.58V108H11.26ZM19.4045 108V91.8H22.9245C24.1245 91.8 25.0712 91.9867 25.7645 92.36C26.4712 92.72 26.9712 93.2667 27.2645 94C27.5712 94.7333 27.7245 95.6467 27.7245 96.74V102.7C27.7245 103.847 27.5712 104.813 27.2645 105.6C26.9712 106.387 26.4845 106.987 25.8045 107.4C25.1379 107.8 24.2379 108 23.1045 108H19.4045ZM21.6645 106.38H22.9445C23.7712 106.38 24.3579 106.22 24.7045 105.9C25.0512 105.58 25.2579 105.113 25.3245 104.5C25.4045 103.887 25.4445 103.147 25.4445 102.28V97.02C25.4445 96.18 25.3912 95.5 25.2845 94.98C25.1779 94.46 24.9445 94.08 24.5845 93.84C24.2245 93.6 23.6579 93.48 22.8845 93.48H21.6645V106.38ZM34.1314 108.18C32.9581 108.18 32.0581 107.947 31.4314 107.48C30.8047 107.013 30.3781 106.36 30.1514 105.52C29.9247 104.667 29.8114 103.673 29.8114 102.54V91.8H31.9714V102.64C31.9714 103.333 32.0181 103.967 32.1114 104.54C32.2047 105.113 32.4047 105.567 32.7114 105.9C33.0314 106.233 33.5047 106.4 34.1314 106.4C34.7714 106.4 35.2447 106.233 35.5514 105.9C35.8581 105.567 36.0581 105.113 36.1514 104.54C36.2447 103.967 36.2914 103.333 36.2914 102.64V91.8H38.4314V102.54C38.4314 103.673 38.3181 104.667 38.0914 105.52C37.8647 106.36 37.4381 107.013 36.8114 107.48C36.1981 107.947 35.3047 108.18 34.1314 108.18ZM44.8708 108.18C43.7241 108.18 42.8308 107.94 42.1908 107.46C41.5641 106.98 41.1241 106.333 40.8708 105.52C40.6308 104.707 40.5108 103.8 40.5108 102.8V97.08C40.5108 95.9867 40.6308 95.0333 40.8708 94.22C41.1241 93.4067 41.5641 92.78 42.1908 92.34C42.8308 91.8867 43.7241 91.66 44.8708 91.66C45.8841 91.66 46.6841 91.8467 47.2708 92.22C47.8708 92.5933 48.2974 93.1267 48.5508 93.82C48.8174 94.5133 48.9508 95.3467 48.9508 96.32V97.6H46.8108V96.46C46.8108 95.86 46.7774 95.3333 46.7108 94.88C46.6574 94.4133 46.4974 94.0533 46.2308 93.8C45.9641 93.5467 45.5174 93.42 44.8908 93.42C44.2508 93.42 43.7841 93.56 43.4908 93.84C43.1974 94.1067 43.0041 94.4933 42.9108 95C42.8308 95.4933 42.7908 96.0733 42.7908 96.74V103.16C42.7908 103.973 42.8574 104.62 42.9908 105.1C43.1241 105.567 43.3441 105.9 43.6508 106.1C43.9574 106.3 44.3708 106.4 44.8908 106.4C45.5041 106.4 45.9441 106.267 46.2108 106C46.4774 105.72 46.6441 105.34 46.7108 104.86C46.7774 104.38 46.8108 103.82 46.8108 103.18V101.98H48.9508V103.18C48.9508 104.167 48.8308 105.04 48.5908 105.8C48.3508 106.547 47.9374 107.133 47.3508 107.56C46.7641 107.973 45.9374 108.18 44.8708 108.18ZM50.2238 108L53.6638 91.8H55.8438L59.3038 108H57.1638L56.4238 103.92H53.1238L52.3438 108H50.2238ZM53.4238 102.3H56.1238L54.7638 95L53.4238 102.3ZM62.083 108V93.48H59.343V91.8H67.003V93.48H64.343V108H62.083ZM68.6847 108V91.8H70.9047V108H68.6847ZM77.6656 108.18C76.5723 108.18 75.699 107.967 75.0456 107.54C74.3923 107.113 73.9256 106.507 73.6456 105.72C73.3656 104.92 73.2256 103.987 73.2256 102.92V96.78C73.2256 95.7133 73.3656 94.8 73.6456 94.04C73.939 93.2667 74.4056 92.68 75.0456 92.28C75.699 91.8667 76.5723 91.66 77.6656 91.66C78.759 91.66 79.6256 91.8667 80.2656 92.28C80.9056 92.6933 81.3656 93.28 81.6456 94.04C81.939 94.8 82.0856 95.7133 82.0856 96.78V102.94C82.0856 103.993 81.939 104.913 81.6456 105.7C81.3656 106.487 80.9056 107.1 80.2656 107.54C79.6256 107.967 78.759 108.18 77.6656 108.18ZM77.6656 106.4C78.2656 106.4 78.719 106.28 79.0256 106.04C79.3323 105.787 79.539 105.44 79.6456 105C79.7523 104.547 79.8056 104.02 79.8056 103.42V96.32C79.8056 95.72 79.7523 95.2067 79.6456 94.78C79.539 94.34 79.3323 94.0067 79.0256 93.78C78.719 93.54 78.2656 93.42 77.6656 93.42C77.0656 93.42 76.6056 93.54 76.2856 93.78C75.979 94.0067 75.7723 94.34 75.6656 94.78C75.559 95.2067 75.5056 95.72 75.5056 96.32V103.42C75.5056 104.02 75.559 104.547 75.6656 105C75.7723 105.44 75.979 105.787 76.2856 106.04C76.6056 106.28 77.0656 106.4 77.6656 106.4ZM84.3069 108V91.8H85.8469L90.4469 102.56V91.8H92.3269V108H90.8869L86.2269 96.94V108H84.3069Z" fill="black"/>
<path d="M0 200C0 198.895 0.895431 198 2 198H538C539.105 198 540 198.895 540 200C540 201.105 539.105 202 538 202H2.00001C0.895436 202 0 201.105 0 200Z" fill="#EBEBEB"/>
<path d="M0 200C0 198.895 0.895431 198 2 198H387C388.105 198 389 198.895 389 200C389 201.105 388.105 202 387 202H2C0.895426 202 0 201.105 0 200Z" fill="#FF8E32"/>
<path d="M496.782 182L499.702 167.48H495.362V165.8H501.842V166.84L498.842 182H496.782ZM503.457 182V180.48L507.577 174.06C507.883 173.58 508.163 173.133 508.417 172.72C508.683 172.307 508.897 171.873 509.057 171.42C509.23 170.953 509.317 170.42 509.317 169.82C509.317 169.073 509.197 168.487 508.957 168.06C508.717 167.633 508.297 167.42 507.697 167.42C507.19 167.42 506.797 167.56 506.517 167.84C506.237 168.12 506.043 168.487 505.937 168.94C505.83 169.393 505.777 169.88 505.777 170.4V170.94H503.637V170.38C503.637 169.407 503.763 168.573 504.017 167.88C504.283 167.173 504.703 166.627 505.277 166.24C505.863 165.853 506.637 165.66 507.597 165.66C508.903 165.66 509.877 166.033 510.517 166.78C511.157 167.513 511.477 168.533 511.477 169.84C511.477 170.533 511.39 171.14 511.217 171.66C511.057 172.18 510.843 172.667 510.577 173.12C510.31 173.573 510.017 174.04 509.697 174.52L505.977 180.2H511.097V182H503.457ZM517.968 182L522.428 165.78H524.268L519.828 182H517.968ZM516.048 174.4C514.941 174.4 514.141 174.06 513.648 173.38C513.154 172.7 512.908 171.787 512.908 170.64V169.38C512.908 168.193 513.148 167.28 513.628 166.64C514.108 166 514.914 165.68 516.048 165.68C517.181 165.68 517.988 165.987 518.468 166.6C518.948 167.213 519.188 168.107 519.188 169.28V170.7C519.188 171.86 518.941 172.767 518.448 173.42C517.968 174.073 517.168 174.4 516.048 174.4ZM516.048 172.78C516.394 172.78 516.648 172.687 516.808 172.5C516.981 172.3 517.094 172.04 517.148 171.72C517.214 171.4 517.248 171.06 517.248 170.7V169.28C517.248 168.733 517.174 168.267 517.028 167.88C516.894 167.493 516.568 167.3 516.048 167.3C515.528 167.3 515.201 167.5 515.068 167.9C514.934 168.287 514.868 168.753 514.868 169.3V170.72C514.868 171.08 514.894 171.42 514.948 171.74C515.014 172.047 515.128 172.3 515.288 172.5C515.461 172.687 515.714 172.78 516.048 172.78ZM526.148 182.1C525.041 182.1 524.241 181.767 523.748 181.1C523.268 180.42 523.028 179.5 523.028 178.34V177.08C523.028 175.907 523.261 175 523.728 174.36C524.208 173.707 525.014 173.38 526.148 173.38C527.294 173.38 528.101 173.693 528.568 174.32C529.048 174.933 529.288 175.827 529.288 177V178.4C529.288 179.573 529.041 180.487 528.548 181.14C528.068 181.78 527.268 182.1 526.148 182.1ZM526.148 180.48C526.494 180.48 526.754 180.387 526.928 180.2C527.101 180 527.214 179.74 527.268 179.42C527.321 179.1 527.348 178.767 527.348 178.42V176.98C527.348 176.433 527.274 175.967 527.128 175.58C526.994 175.193 526.668 175 526.148 175C525.628 175 525.301 175.2 525.168 175.6C525.034 175.987 524.968 176.453 524.968 177V178.42C524.968 178.78 524.994 179.12 525.048 179.44C525.114 179.747 525.228 180 525.388 180.2C525.561 180.387 525.814 180.48 526.148 180.48Z" fill="black"/>
<path d="M15.08 182.18C14.1467 182.18 13.3667 181.98 12.74 181.58C12.1267 181.18 11.66 180.627 11.34 179.92C11.02 179.213 10.8333 178.393 10.78 177.46L12.78 176.92C12.82 177.493 12.9067 178.047 13.04 178.58C13.1867 179.113 13.42 179.553 13.74 179.9C14.06 180.233 14.5067 180.4 15.08 180.4C15.6667 180.4 16.1067 180.24 16.4 179.92C16.7067 179.587 16.86 179.113 16.86 178.5C16.86 177.767 16.6933 177.18 16.36 176.74C16.0267 176.287 15.6067 175.833 15.1 175.38L12.38 172.98C11.8467 172.513 11.4533 172.007 11.2 171.46C10.9467 170.9 10.82 170.213 10.82 169.4C10.82 168.213 11.16 167.293 11.84 166.64C12.52 165.987 13.4467 165.66 14.62 165.66C15.26 165.66 15.82 165.747 16.3 165.92C16.7933 166.08 17.2 166.333 17.52 166.68C17.8533 167.027 18.1133 167.467 18.3 168C18.5 168.52 18.6333 169.133 18.7 169.84L16.78 170.36C16.74 169.827 16.66 169.34 16.54 168.9C16.42 168.447 16.2067 168.087 15.9 167.82C15.6067 167.54 15.18 167.4 14.62 167.4C14.06 167.4 13.62 167.553 13.3 167.86C12.9933 168.153 12.84 168.593 12.84 169.18C12.84 169.673 12.92 170.08 13.08 170.4C13.2533 170.72 13.5267 171.047 13.9 171.38L16.64 173.78C17.2533 174.313 17.7933 174.953 18.26 175.7C18.7267 176.433 18.96 177.307 18.96 178.32C18.96 179.12 18.7933 179.813 18.46 180.4C18.1267 180.973 17.6667 181.413 17.08 181.72C16.5067 182.027 15.84 182.18 15.08 182.18ZM22.4931 182V167.48H19.7531V165.8H27.4131V167.48H24.7531V182H22.4931ZM28.9748 182V165.8H32.2348C33.3148 165.8 34.2082 165.947 34.9148 166.24C35.6215 166.52 36.1415 166.98 36.4748 167.62C36.8215 168.247 36.9948 169.073 36.9948 170.1C36.9948 170.727 36.9282 171.3 36.7948 171.82C36.6615 172.327 36.4482 172.76 36.1548 173.12C35.8615 173.467 35.4748 173.72 34.9948 173.88L37.2948 182H35.1148L32.9948 174.4H31.2348V182H28.9748ZM31.2348 172.78H32.0948C32.7348 172.78 33.2548 172.7 33.6548 172.54C34.0548 172.38 34.3482 172.107 34.5348 171.72C34.7215 171.333 34.8148 170.793 34.8148 170.1C34.8148 169.153 34.6415 168.473 34.2948 168.06C33.9482 167.633 33.2615 167.42 32.2348 167.42H31.2348V172.78ZM38.4659 182L41.9059 165.8H44.0859L47.5459 182H45.4059L44.6659 177.92H41.3659L40.5859 182H38.4659ZM41.6659 176.3H44.3659L43.0059 169L41.6659 176.3ZM50.3252 182V167.48H47.5852V165.8H55.2452V167.48H52.5852V182H50.3252ZM56.8069 182V165.8H63.0869V167.48H59.0669V172.84H62.3269V174.44H59.0669V180.38H63.1269V182H56.8069ZM68.8114 182.2C67.7981 182.2 66.9847 181.987 66.3714 181.56C65.7714 181.12 65.3314 180.487 65.0514 179.66C64.7847 178.833 64.6514 177.84 64.6514 176.68V171.26C64.6514 170.073 64.7714 169.067 65.0114 168.24C65.2647 167.4 65.7047 166.76 66.3314 166.32C66.9714 165.88 67.8581 165.66 68.9914 165.66C70.0047 165.66 70.8181 165.833 71.4314 166.18C72.0581 166.513 72.5114 167.033 72.7914 167.74C73.0714 168.433 73.2114 169.313 73.2114 170.38V170.98H71.0914V170.48C71.0914 169.773 71.0447 169.2 70.9514 168.76C70.8581 168.307 70.6647 167.973 70.3714 167.76C70.0914 167.533 69.6447 167.42 69.0314 167.42C68.3647 167.42 67.8781 167.573 67.5714 167.88C67.2781 168.187 67.0914 168.607 67.0114 169.14C66.9447 169.66 66.9114 170.253 66.9114 170.92V176.92C66.9114 177.693 66.9647 178.34 67.0714 178.86C67.1914 179.38 67.4114 179.767 67.7314 180.02C68.0514 180.273 68.5047 180.4 69.0914 180.4C69.6781 180.4 70.1314 180.26 70.4514 179.98C70.7714 179.7 70.9914 179.287 71.1114 178.74C71.2314 178.193 71.2914 177.513 71.2914 176.7V175.58H69.2314V173.98H73.3314V182H71.9114L71.6914 180.14C71.4781 180.74 71.1447 181.233 70.6914 181.62C70.2381 182.007 69.6114 182.2 68.8114 182.2ZM78.0173 182V176.28L74.5173 165.8H76.6173L79.0973 173.62L81.5373 165.8H83.6573L80.1773 176.28V182H78.0173ZM89.7366 182V165.8H93.2566C94.4566 165.8 95.4032 165.987 96.0966 166.36C96.8032 166.72 97.3032 167.267 97.5966 168C97.9032 168.733 98.0566 169.647 98.0566 170.74V176.7C98.0566 177.847 97.9032 178.813 97.5966 179.6C97.3032 180.387 96.8166 180.987 96.1366 181.4C95.4699 181.8 94.5699 182 93.4366 182H89.7366ZM91.9966 180.38H93.2766C94.1032 180.38 94.6899 180.22 95.0366 179.9C95.3832 179.58 95.5899 179.113 95.6566 178.5C95.7366 177.887 95.7766 177.147 95.7766 176.28V171.02C95.7766 170.18 95.7232 169.5 95.6166 168.98C95.5099 168.46 95.2766 168.08 94.9166 167.84C94.5566 167.6 93.9899 167.48 93.2166 167.48H91.9966V180.38ZM100.283 182V165.8H106.563V167.48H102.543V172.84H105.803V174.44H102.543V180.38H106.603V182H100.283ZM111.248 182L107.628 165.8H109.748L112.308 177.74L114.748 165.8H116.808L113.228 182H111.248ZM118.526 182V165.8H124.806V167.48H120.786V172.84H124.046V174.44H120.786V180.38H124.846V182H118.526ZM126.67 182V165.8H128.93V180.38H133.07V182H126.67ZM138.642 182.18C137.549 182.18 136.676 181.967 136.022 181.54C135.369 181.113 134.902 180.507 134.622 179.72C134.342 178.92 134.202 177.987 134.202 176.92V170.78C134.202 169.713 134.342 168.8 134.622 168.04C134.916 167.267 135.382 166.68 136.022 166.28C136.676 165.867 137.549 165.66 138.642 165.66C139.736 165.66 140.602 165.867 141.242 166.28C141.882 166.693 142.342 167.28 142.622 168.04C142.916 168.8 143.062 169.713 143.062 170.78V176.94C143.062 177.993 142.916 178.913 142.622 179.7C142.342 180.487 141.882 181.1 141.242 181.54C140.602 181.967 139.736 182.18 138.642 182.18ZM138.642 180.4C139.242 180.4 139.696 180.28 140.002 180.04C140.309 179.787 140.516 179.44 140.622 179C140.729 178.547 140.782 178.02 140.782 177.42V170.32C140.782 169.72 140.729 169.207 140.622 168.78C140.516 168.34 140.309 168.007 140.002 167.78C139.696 167.54 139.242 167.42 138.642 167.42C138.042 167.42 137.582 167.54 137.262 167.78C136.956 168.007 136.749 168.34 136.642 168.78C136.536 169.207 136.482 169.72 136.482 170.32V177.42C136.482 178.02 136.536 178.547 136.642 179C136.749 179.44 136.956 179.787 137.262 180.04C137.582 180.28 138.042 180.4 138.642 180.4ZM145.283 182V165.8H149.303C150.277 165.8 151.05 165.98 151.623 166.34C152.21 166.687 152.637 167.193 152.903 167.86C153.17 168.527 153.303 169.333 153.303 170.28C153.303 171.133 153.15 171.873 152.843 172.5C152.55 173.127 152.11 173.613 151.523 173.96C150.937 174.293 150.203 174.46 149.323 174.46H147.543V182H145.283ZM147.543 172.84H148.583C149.237 172.84 149.75 172.767 150.123 172.62C150.497 172.473 150.763 172.22 150.923 171.86C151.083 171.487 151.163 170.967 151.163 170.3C151.163 169.527 151.103 168.933 150.983 168.52C150.877 168.107 150.643 167.82 150.283 167.66C149.923 167.5 149.363 167.42 148.603 167.42H147.543V172.84ZM154.853 182L155.153 165.8H157.373L160.233 178.94L163.113 165.8H165.313L165.613 182H163.793L163.613 170.24L160.873 182H159.593L156.873 170.24L156.693 182H154.853ZM168.096 182V165.8H174.376V167.48H170.356V172.84H173.616V174.44H170.356V180.38H174.416V182H168.096ZM176.24 182V165.8H177.78L182.38 176.56V165.8H184.26V182H182.82L178.16 170.94V182H176.24ZM188.587 182V167.48H185.847V165.8H193.507V167.48H190.847V182H188.587Z" fill="black"/>
</svg>
